<svg width="24" height="24" fill="none" xmlns="http://www.w3.org/2000/svg"><path d="M22.5 19.5h-.75V8.25A.75.75 0 0021 7.5h-6a.75.75 0 00-.75.75V12h-4.5V3.75A.75.75 0 009 3H3a.75.75 0 00-.75.75V19.5H1.5a.75.75 0 100 1.5h21a.75.75 0 100-1.5zM6.75 17.25a.75.75 0 11-1.5 0v-1.5a.75.75 0 111.5 0v1.5zm0-4.5a.75.75 0 11-1.5 0v-1.5a.75.75 0 111.5 0v1.5zm0-4.5a.75.75 0 01-1.5 0v-1.5a.75.75 0 011.5 0v1.5zm6 9a.75.75 0 11-1.5 0v-1.5a.75.75 0 111.5 0v1.5zm6 0a.75.75 0 11-1.5 0v-1.5a.75.75 0 111.5 0v1.5zm0-4.5a.75.75 0 11-1.5 0v-1.5a.75.75 0 111.5 0v1.5z" fill="#0075FF"/></svg>