<svg width="24" height="18" fill="none" xmlns="http://www.w3.org/2000/svg"><path fill-rule="evenodd" clip-rule="evenodd" d="M4.534.637a1.2 1.2 0 00-1.586.603L.352 7.003a1.2 1.2 0 00.6 1.587l1.788.805a1.2 1.2 0 001.588-.6L6.923 3.03a1.2 1.2 0 00-.6-1.586L4.534.637zM2.406 7.751a.818.818 0 10.672-1.491.818.818 0 00-.672 1.49zm20.57.996a1.201 1.201 0 00.697-1.548L21.435 1.29a1.2 1.2 0 00-1.548-.697l-1.833.695a1.2 1.2 0 00-.696 1.548l2.24 5.91a1.2 1.2 0 001.546.697l1.833-.696zm-3.524-6.534a.818.818 0 10.58 1.529.818.818 0 00-.58-1.53z" fill="#5E55A0"/><path fill-rule="evenodd" clip-rule="evenodd" d="M18.02 2.578h.01a.6.6 0 00-.105-1.197h-.01l-.031.004-.116.012a50.22 50.22 0 00-1.82.206c-1.072.14-2.403.357-3.273.647-.424.14-.87.413-1.296.725-.46.34-.897.709-1.313 1.101-.762.72-1.49 1.474-2.183 2.261-.503.569-.619 1.476-.029 2.12.384.415.984.94 1.762 1.175.812.244 1.748.15 2.705-.561l1.199-.774a.366.366 0 01.021-.013c.172.104.41.284.696.523.312.261.65.57.966.866.358.338.71.682 1.056 1.032l.066.069.017.016.006.006.07.072.09.047c.484.24 1.016.154 1.429.015.43-.144.857-.39 1.22-.63.456-.306.887-.647 1.29-1.02l.022-.018.006-.006.001-.002s-.106-.372-.518-.806l-.326.408-.274.793-3.01 1.147.61-.547-.322-.86a41.178 41.178 0 00-.61-.588 23.47 23.47 0 00-1.02-.912c-.327-.276-.668-.538-.952-.694-.473-.259-.936-.067-1.186.095l-1.234.797-.016.012c-.666.499-1.214.518-1.656.385-.48-.144-.906-.494-1.224-.84-.1-.108-.129-.316.044-.511a32.565 32.565 0 012.101-2.178c.41-.38.82-.732 1.203-1.012.39-.285.72-.471.968-.554.749-.25 1.974-.455 3.053-.598.59-.077 1.181-.144 1.773-.2l.112-.011.028-.002z" fill="#5E55A0"/><path d="M17.11 9.862a42.684 42.684 0 00-.474-.473l.321.86-.61.549 3.01-1.149.275-.792.325-.408-.306-.065-.003.003-.017.015-.065.06a9.822 9.822 0 01-1.074.84c-.324.215-.652.395-.94.491-.223.076-.362.082-.442.069z" fill="#5E55A0"/><path fill-rule="evenodd" clip-rule="evenodd" d="M6.216 3.73l-.236-.55-.236-.552.048-.02.135-.057c.666-.282 1.334-.559 2.004-.828.545-.22 1.094-.43 1.647-.628.243-.086.47-.16.66-.214A2.1 2.1 0 0110.78.78c.156 0 .32.036.456.072.146.04.307.092.47.152.33.12.7.276 1.043.427.4.18.797.366 1.19.56l.08.038.021.01.008.004a.6.6 0 01-.537 1.074l-.006-.003-.019-.01-.074-.036c-.38-.187-.764-.367-1.151-.54a15.76 15.76 0 00-.964-.396 4.598 4.598 0 00-.37-.12 1.115 1.115 0 00-.143-.031l-.011.002a1.985 1.985 0 00-.207.05c-.198.06-.395.124-.59.194a43.85 43.85 0 00-1.598.61c-.663.266-1.324.539-1.982.818l-.133.056-.047.02zm-.788-.315a.6.6 0 01.316-.787l.236.552.236.55a.6.6 0 01-.788-.315zM3.144 8.167a.6.6 0 01.849-.024l-.413.436-.412.437a.6.6 0 01-.024-.849zm5.484 4.065l3.316 1.243a1.8 1.8 0 001.904-.413l2.508-2.508a.6.6 0 01.849.85l-2.508 2.508a3 3 0 01-3.174.686L8.139 13.33l-.028-.014a3.605 3.605 0 01-.52-.35c-.195-.15-.423-.336-.669-.546-.55-.47-1.094-.95-1.63-1.439a153.738 153.738 0 01-1.947-1.8l-.13-.122-.047-.043.412-.437.413-.436.044.042.129.121c.639.601 1.283 1.196 1.932 1.786.552.5 1.122 1.008 1.6 1.414a20 20 0 00.623.508c.159.122.258.189.307.216m-4.064 2.565a.6.6 0 01.844-.076l1.15.96a1.8 1.8 0 00.904.401l1.483.209a.6.6 0 11-.165 1.188l-1.485-.208a3 3 0 01-1.506-.668l-1.15-.96a.6.6 0 01-.076-.846" fill="#5E55A0"/></svg>