<svg width="24" height="24" fill="none" xmlns="http://www.w3.org/2000/svg"><path d="M20.692 3.755a1.52 1.52 0 00-1.27-.69h-4.41a1.49 1.49 0 00-1.36.87L12 7.485l-1.66-3.55a1.49 1.49 0 00-1.36-.87H4.572a1.5 1.5 0 00-1.35 2.14l3.73 8.02a5.6 5.6 0 00-.46 2.21 5.5 5.5 0 1010.54-2.2l3.75-8.03a1.53 1.53 0 00-.09-1.45zm-16.57 1.03a.53.53 0 01.03-.49.5.5 0 01.42-.23h4.41a.51.51 0 01.46.29l2.61 5.58h-.06a5.5 5.5 0 00-4.43 2.25l-3.44-7.4zm7.87 15.15a4.5 4.5 0 110-9.001 4.5 4.5 0 010 9zm7.89-15.15l-3.46 7.4a5.45 5.45 0 00-3.21-2.11l-.66-1.42 2-4.3a.51.51 0 01.46-.29h4.41a.48.48 0 01.42.23.5.5 0 01.04.49z" fill="#0075FF"/><path d="M4.122 4.785a.53.53 0 01.03-.49.5.5 0 01.42-.23h4.41a.51.51 0 01.46.29l2.61 5.58h-.06a5.5 5.5 0 00-4.43 2.25l-3.44-7.4zm15.759 0l-3.46 7.4a5.45 5.45 0 00-3.21-2.11l-.66-1.42 2-4.3a.51.51 0 01.46-.29h4.41a.48.48 0 01.42.23.5.5 0 01.04.49zm-7.889 15.15a4.5 4.5 0 110-9.001 4.5 4.5 0 010 9z" fill="#0075FF"/><path d="M12.074 16.88l1.024.538a.175.175 0 00.243-.088.174.174 0 00.01-.096l-.2-1.14a.17.17 0 01.051-.154l.828-.807a.174.174 0 00-.01-.262.176.176 0 00-.09-.038l-1.133-.164a.18.18 0 01-.132-.1l-.512-1.037a.174.174 0 00-.313 0l-.512 1.037a.17.17 0 01-.13.1l-1.146.166a.175.175 0 00-.1.3l.828.807a.17.17 0 01.05.154l-.2 1.14a.174.174 0 00.253.184l1.024-.538a.171.171 0 01.167-.002z" fill="#fff"/></svg>