<?xml version="1.0" encoding="utf-8"?><svg viewBox="0 0 34 34" xmlns="http://www.w3.org/2000/svg" xmlns:xlink="http://www.w3.org/1999/xlink"><style>:root>svg{display:none}:root>svg:target{display:block}</style><svg viewBox="0 0 16 16" id="angles-left" xmlns="http://www.w3.org/2000/svg"><path d="m11.727 12 .94-.94L9.614 8l3.053-3.06-.94-.94-4 4 4 4Z"/><path d="m7.333 12 .94-.94L5.22 8l3.053-3.06-.94-.94-4 4 4 4Z"/></svg><svg viewBox="0 0 16 16" id="app-store" xmlns="http://www.w3.org/2000/svg"><g clip-path="url(#ba)"><path d="m3.65 13.532-.402.628a1.027 1.027 0 0 1-1.694.111 1.007 1.007 0 0 1-.075-1.123l.254-.372c.098-.138.339-.378.82-.333 0 0 1.134.122 1.216.705 0 0 .011.192-.12.384Zm11.329-4.085h-2.41c-.164-.01-.236-.069-.264-.103l-.002-.003L10 5.608c-.253-.384-.656.598-.656.598-.48 1.094.068 2.339.26 2.715l3.148 5.238a1.026 1.026 0 0 0 1.87-.243 1.006 1.006 0 0 0-.101-.77l-.896-1.536c-.017-.038-.048-.138.136-.14h1.218c.564 0 1.021-.452 1.021-1.011 0-.559-.457-1.012-1.021-1.012Zm-5.803 1.376s.129.648-.37.648H1.022A1.017 1.017 0 0 1 0 10.459C0 9.9.457 9.447 1.021 9.447h2.29c.37-.021.458-.233.458-.233l.002.002 2.989-5.13a.224.224 0 0 0 0-.208l-.987-1.694A1.007 1.007 0 0 1 6.147.802a1.027 1.027 0 0 1 1.396.37L8 1.958l.457-.784a1.027 1.027 0 0 1 1.87.242 1.007 1.007 0 0 1-.101.77l-4.16 7.138c-.017.043-.023.11.113.123h1.364s1.437.047 1.633 1.376Z"/></g><defs><clipPath id="ba"><path d="M0 0h16v16H0z"/></clipPath></defs></svg><svg viewBox="0 0 24 24" id="arrow-bottom" xmlns="http://www.w3.org/2000/svg"><path d="M12 19.071V4.93M19.07 12 12 19.071 4.927 12" stroke-width="2" stroke-linecap="round" stroke-linejoin="round"/></svg><svg viewBox="0 0 34 34" id="arrow-rect" xmlns="http://www.w3.org/2000/svg"><path fill-rule="evenodd" clip-rule="evenodd" d="M7 .333A6.667 6.667 0 0 0 .335 7v20a6.667 6.667 0 0 0 6.667 6.667h20A6.667 6.667 0 0 0 33.667 27V7A6.667 6.667 0 0 0 27.001.333H7Zm12.36 8.96a1.25 1.25 0 1 0-1.386 2.08l2.044 1.364c-2.259.403-4.414 1.192-6.21 2.39-2.789 1.859-4.724 4.722-4.724 8.54a1.25 1.25 0 0 0 2.5 0c0-2.849 1.398-4.985 3.61-6.46 1.66-1.107 3.772-1.828 6.03-2.13l-1.93 2.897a1.25 1.25 0 0 0 2.08 1.386l3.333-5a1.25 1.25 0 0 0-.346-1.733l-5-3.333Z"/></svg><svg viewBox="0 0 14 10" id="arrow-right" xmlns="http://www.w3.org/2000/svg"><path d="m9 9 4-4m0 0L9 1m4 4H1" stroke-width="1.5" stroke-linecap="round" stroke-linejoin="round"/></svg><svg viewBox="0 0 16 16" id="arrow-top" xmlns="http://www.w3.org/2000/svg"><path d="M7.713 1.286 7.313 14M3 6l4.714-4.715L12.428 6" stroke-linecap="round" stroke-linejoin="round"/></svg><svg viewBox="0 0 24 24" id="arrow-top-right" xmlns="http://www.w3.org/2000/svg"><path d="M7 17 17 7M7 7h10v10" stroke-width="1.5" stroke-linecap="round" stroke-linejoin="round"/></svg><svg viewBox="0 0 24 25" id="check" xmlns="http://www.w3.org/2000/svg"><path fill-rule="evenodd" clip-rule="evenodd" d="M20.21 7.293a1 1 0 0 1 0 1.414l-9.5 9.5a1 1 0 0 1-1.414 0l-4.5-4.5a1 1 0 0 1 1.414-1.414l3.793 3.793 8.793-8.793a1 1 0 0 1 1.414 0Z"/></svg><svg viewBox="0 0 7 10" id="chevron-right" xmlns="http://www.w3.org/2000/svg"><path d="M1.625 8.75 5.375 5l-3.75-3.75" stroke-width="2" stroke-linecap="round" stroke-linejoin="round"/></svg><svg viewBox="0 0 8 14" id="chevron-right-thin" xmlns="http://www.w3.org/2000/svg"><path d="m1 13 6-6-6-6" stroke-width="2" stroke-linecap="round" stroke-linejoin="round"/></svg><svg viewBox="0 0 24 24" id="envelope" xmlns="http://www.w3.org/2000/svg"><path fill-rule="evenodd" clip-rule="evenodd" d="M1.25 4.5A.75.75 0 0 1 2 3.75h20a.75.75 0 0 1 .75.75v15a.75.75 0 0 1-.75.75H2a.75.75 0 0 1-.75-.75v-15Zm1.5.75v13.5h18.5V5.25H2.75Z"/><path fill-rule="evenodd" clip-rule="evenodd" d="M1.4 4.05a.75.75 0 0 1 1.05-.15L12 11.062 21.55 3.9a.75.75 0 0 1 .9 1.2l-10 7.5a.75.75 0 0 1-.9 0l-10-7.5a.75.75 0 0 1-.15-1.05Z"/><path fill-rule="evenodd" clip-rule="evenodd" d="M1.25 4.5A.75.75 0 0 1 2 3.75h10a.75.75 0 0 1 0 1.5H2.75V12a.75.75 0 0 1-1.5 0V4.5Z"/><path fill-rule="evenodd" clip-rule="evenodd" d="M11.25 4.5a.75.75 0 0 1 .75-.75h10a.75.75 0 0 1 .75.75V12a.75.75 0 0 1-1.5 0V5.25H12a.75.75 0 0 1-.75-.75Z"/></svg><svg viewBox="0 0 16 16" id="filter" xmlns="http://www.w3.org/2000/svg"><path fill-rule="evenodd" clip-rule="evenodd" d="M13 1.333a.833.833 0 1 0-1.667 0v.834h-10a.833.833 0 1 0 0 1.666h10v.834a.833.833 0 1 0 1.667 0v-.834h1.667a.833.833 0 0 0 0-1.666H13v-.834ZM1.333 7.167a.833.833 0 1 0 0 1.666H3v.834a.833.833 0 0 0 1.667 0v-.834h10a.833.833 0 0 0 0-1.666h-10v-.834a.833.833 0 0 0-1.667 0v.834H1.333ZM.5 13a.833.833 0 0 1 .833-.833h10v-.834a.833.833 0 0 1 1.667 0v.834h1.667a.834.834 0 0 1 0 1.666H13v.834a.833.833 0 0 1-1.667 0v-.834h-10A.834.834 0 0 1 .5 13Z"/></svg><svg viewBox="0 0 16 16" id="instagram" xmlns="http://www.w3.org/2000/svg"><path fill-rule="evenodd" clip-rule="evenodd" d="M3.875.9A2.976 2.976 0 0 0 .899 3.873v7.936a2.976 2.976 0 0 0 2.976 2.976h7.936a2.976 2.976 0 0 0 2.975-2.976V3.874A2.976 2.976 0 0 0 11.81.9H3.875Zm8.792 2.979a.857.857 0 1 1-1.715 0 .857.857 0 0 1 1.715 0ZM7.844 5.465a2.377 2.377 0 1 0 0 4.754 2.377 2.377 0 0 0 0-4.754ZM4.323 7.842a3.52 3.52 0 1 1 7.04 0 3.52 3.52 0 0 1-7.04 0Z"/></svg><svg viewBox="0 0 24 24" id="magnifying-glass" xmlns="http://www.w3.org/2000/svg"><path d="M11 19a8 8 0 1 0 0-16 8 8 0 0 0 0 16ZM21 21l-4.35-4.35" stroke-width="1.5" stroke-linecap="round" stroke-linejoin="round"/></svg><svg viewBox="0 0 24 24" id="map-pin" xmlns="http://www.w3.org/2000/svg"><path fill-rule="evenodd" clip-rule="evenodd" d="M3.75 9.5a8.25 8.25 0 1 1 16.5 0c0 3.516-2.014 6.812-3.917 9.16a29.705 29.705 0 0 1-3.521 3.638c-.106.091-.19.162-.25.21-.028.025-.051.043-.067.056l-.019.015-.005.005h-.002v.001L12 22l-.469.585-.002-.001-.005-.005-.019-.015-.068-.055-.249-.211a29.708 29.708 0 0 1-3.52-3.638C5.762 16.312 3.75 13.016 3.75 9.5ZM12 22l-.469.586a.75.75 0 0 0 .938 0L12 22Zm0-.985a28.214 28.214 0 0 0 3.167-3.3c1.847-2.277 3.583-5.23 3.583-8.215a6.75 6.75 0 0 0-13.5 0c0 2.984 1.737 5.938 3.583 8.215a28.214 28.214 0 0 0 3.167 3.3Z"/><path fill-rule="evenodd" clip-rule="evenodd" d="M8.25 9.5a3.75 3.75 0 1 1 7.5 0 3.75 3.75 0 0 1-7.5 0ZM12 7.25a2.25 2.25 0 1 0 0 4.5 2.25 2.25 0 0 0 0-4.5Z"/></svg><svg viewBox="0 0 18 20" id="play" xmlns="http://www.w3.org/2000/svg"><path d="M16.5 7.402c2 1.155 2 4.041 0 5.196l-12 6.928c-2 1.155-4.5-.288-4.5-2.598V3.072C0 .762 2.5-.681 4.5.474l12 6.928Z"/></svg><svg viewBox="0 0 16 16" id="telegram" xmlns="http://www.w3.org/2000/svg"><g clip-path="url(#qa)"><path fill-rule="evenodd" clip-rule="evenodd" d="M13.185 2.953a1 1 0 0 1 1.375 1.084l-1.512 9.172c-.147.884-1.118 1.392-1.929.951a38.95 38.95 0 0 1-2.593-1.53c-.454-.296-1.842-1.246-1.672-1.922.147-.578 2.48-2.75 3.814-4.041.523-.508.284-.8-.334-.334C8.8 7.492 6.336 9.254 5.521 9.75c-.719.437-1.093.512-1.541.437a10.215 10.215 0 0 1-2.194-.603c-.836-.347-.796-1.496 0-1.83l11.4-4.8Z"/></g><defs><clipPath id="qa"><path d="M0 0h16v16H0z"/></clipPath></defs></svg><svg viewBox="0 0 16 16" id="tiktok" xmlns="http://www.w3.org/2000/svg"><path d="M11.067 3.88A2.852 2.852 0 0 1 10.361 2H8.3v8.267a1.728 1.728 0 0 1-1.727 1.666A1.738 1.738 0 0 1 4.84 10.2a1.73 1.73 0 0 1 2.246-1.653V6.44a3.802 3.802 0 0 0-4.313 3.76c0 2.22 1.84 3.8 3.793 3.8 2.094 0 3.794-1.7 3.794-3.8V6.007a4.9 4.9 0 0 0 2.866.92v-2.06s-1.253.06-2.16-.987Z"/></svg><svg viewBox="0 0 10 11" id="times" xmlns="http://www.w3.org/2000/svg"><path d="M9.243 1.258.758 9.743m8.485 0L.758 1.258" stroke-width="1.5" stroke-linecap="round" stroke-linejoin="round"/></svg><svg viewBox="0 0 12 10" id="view-line" xmlns="http://www.w3.org/2000/svg"><path fill-rule="evenodd" clip-rule="evenodd" d="M.25 1A.75.75 0 0 1 1 .25h10a.75.75 0 0 1 0 1.5H1A.75.75 0 0 1 .25 1Zm0 4A.75.75 0 0 1 1 4.25h10a.75.75 0 0 1 0 1.5H1A.75.75 0 0 1 .25 5ZM1 8.25a.75.75 0 0 0 0 1.5h10a.75.75 0 0 0 0-1.5H1Z"/></svg><svg viewBox="0 0 16 16" id="view-rect" xmlns="http://www.w3.org/2000/svg"><path fill-rule="evenodd" clip-rule="evenodd" d="M12 0a2 2 0 0 0-2 2v2a2 2 0 0 0 2 2h2a2 2 0 0 0 2-2V2a2 2 0 0 0-2-2h-2ZM2 10a2 2 0 0 0-2 2v2a2 2 0 0 0 2 2h2a2 2 0 0 0 2-2v-2a2 2 0 0 0-2-2H2ZM0 2a2 2 0 0 1 2-2h2a2 2 0 0 1 2 2v2a2 2 0 0 1-2 2H2a2 2 0 0 1-2-2V2Zm12 8a2 2 0 0 0-2 2v2a2 2 0 0 0 2 2h2a2 2 0 0 0 2-2v-2a2 2 0 0 0-2-2h-2Z"/></svg><svg viewBox="0 0 16 16" id="vk" xmlns="http://www.w3.org/2000/svg"><g clip-path="url(#va)"><path fill-rule="evenodd" clip-rule="evenodd" d="M14.242 9.839s1.293 1.277 1.613 1.869a.1.1 0 0 1 .015.028c.13.218.162.39.098.516-.108.208-.473.313-.598.322h-2.286c-.16 0-.49-.042-.893-.32-.309-.215-.615-.57-.912-.916-.443-.514-.826-.96-1.214-.96a.438.438 0 0 0-.144.023c-.294.093-.667.511-.667 1.626 0 .349-.275.547-.468.547H7.74c-.357 0-2.214-.125-3.861-1.862C1.859 8.586.046 4.32.028 4.282c-.112-.275.125-.426.38-.426h2.31c.31 0 .41.188.48.356.082.192.384.964.88 1.83.804 1.41 1.297 1.983 1.692 1.983.074 0 .147-.019.21-.056.516-.283.42-2.123.396-2.502 0-.074 0-.822-.265-1.183-.189-.26-.51-.36-.705-.397a.836.836 0 0 1 .304-.259c.353-.176.99-.201 1.624-.201h.35c.687.01.865.053 1.114.117.503.12.512.445.468 1.554-.012.317-.026.674-.026 1.094 0 .09-.004.19-.004.29-.015.57-.035 1.21.366 1.474.053.032.113.05.174.05.14 0 .556 0 1.687-1.94.496-.858.88-1.868.906-1.944a.577.577 0 0 1 .171-.21.383.383 0 0 1 .189-.044h2.716c.296 0 .497.044.536.156.066.182-.013.736-1.253 2.413-.209.28-.392.521-.553.732-1.124 1.475-1.124 1.55.067 2.67Z"/></g><defs><clipPath id="va"><path d="M0 0h16v16H0z"/></clipPath></defs></svg><svg viewBox="0 0 16 16" id="youtube" xmlns="http://www.w3.org/2000/svg"><path d="m6.667 10 3.46-2-3.46-2v4Zm7.707-5.22c.087.313.147.733.187 1.266.046.534.066.994.066 1.394l.04.56c0 1.46-.106 2.533-.293 3.22-.167.6-.553.986-1.153 1.153-.314.087-.887.147-1.767.187a44.5 44.5 0 0 1-2.393.066l-1.06.04c-2.794 0-4.534-.106-5.22-.293-.6-.167-.987-.553-1.154-1.153-.086-.314-.146-.734-.186-1.267a16.04 16.04 0 0 1-.067-1.393L1.334 8c0-1.46.107-2.534.293-3.22.167-.6.554-.987 1.154-1.154.313-.086.886-.146 1.766-.186a44.44 44.44 0 0 1 2.394-.067L8 3.333c2.793 0 4.533.107 5.22.293.6.167.986.554 1.153 1.154Z"/></svg></svg>