<?xml version="1.0" encoding="utf-8"?><svg viewBox="0 0 907 284" xmlns="http://www.w3.org/2000/svg" xmlns:xlink="http://www.w3.org/1999/xlink"><style>:root>svg{display:none}:root>svg:target{display:block}</style><svg viewBox="0 0 16 16" id="angles-left" xmlns="http://www.w3.org/2000/svg"><path d="m11.727 12 .94-.94L9.614 8l3.053-3.06-.94-.94-4 4 4 4Z"/><path d="m7.333 12 .94-.94L5.22 8l3.053-3.06-.94-.94-4 4 4 4Z"/></svg><svg viewBox="0 0 16 16" id="app-store" xmlns="http://www.w3.org/2000/svg"><g clip-path="url(#aba)"><path d="m3.65 13.532-.402.628a1.027 1.027 0 0 1-1.694.111 1.007 1.007 0 0 1-.075-1.123l.254-.372c.098-.138.339-.378.82-.333 0 0 1.134.122 1.216.705 0 0 .011.192-.12.384Zm11.329-4.085h-2.41c-.164-.01-.236-.069-.264-.103l-.002-.003L10 5.608c-.253-.384-.656.598-.656.598-.48 1.094.068 2.339.26 2.715l3.148 5.238a1.026 1.026 0 0 0 1.87-.243 1.006 1.006 0 0 0-.101-.77l-.896-1.536c-.017-.038-.048-.138.136-.14h1.218c.564 0 1.021-.452 1.021-1.011 0-.559-.457-1.012-1.021-1.012Zm-5.803 1.376s.129.648-.37.648H1.022A1.017 1.017 0 0 1 0 10.459C0 9.9.457 9.447 1.021 9.447h2.29c.37-.021.458-.233.458-.233l.002.002 2.989-5.13a.224.224 0 0 0 0-.208l-.987-1.694A1.007 1.007 0 0 1 6.147.802a1.027 1.027 0 0 1 1.396.37L8 1.958l.457-.784a1.027 1.027 0 0 1 1.87.242 1.007 1.007 0 0 1-.101.77l-4.16 7.138c-.017.043-.023.11.113.123h1.364s1.437.047 1.633 1.376Z"/></g><defs><clipPath id="aba"><path d="M0 0h16v16H0z"/></clipPath></defs></svg><svg viewBox="0 0 34 34" id="arrow-rect" xmlns="http://www.w3.org/2000/svg"><path fill-rule="evenodd" clip-rule="evenodd" d="M7 .333A6.667 6.667 0 0 0 .335 7v20a6.667 6.667 0 0 0 6.667 6.667h20A6.667 6.667 0 0 0 33.667 27V7A6.667 6.667 0 0 0 27.001.333H7Zm12.36 8.96a1.25 1.25 0 1 0-1.386 2.08l2.044 1.364c-2.259.403-4.414 1.192-6.21 2.39-2.789 1.859-4.724 4.722-4.724 8.54a1.25 1.25 0 0 0 2.5 0c0-2.849 1.398-4.985 3.61-6.46 1.66-1.107 3.772-1.828 6.03-2.13l-1.93 2.897a1.25 1.25 0 0 0 2.08 1.386l3.333-5a1.25 1.25 0 0 0-.346-1.733l-5-3.333Z"/></svg><svg viewBox="0 0 14 10" id="arrow-right" xmlns="http://www.w3.org/2000/svg"><path d="m9 9 4-4m0 0L9 1m4 4H1" stroke-width="1.5" stroke-linecap="round" stroke-linejoin="round"/></svg><svg viewBox="0 0 24 24" id="arrow-top-right" xmlns="http://www.w3.org/2000/svg"><path d="M7 17 17 7M7 7h10v10" stroke-width="1.5" stroke-linecap="round" stroke-linejoin="round"/></svg><svg viewBox="0 0 666 284" id="bubble" xmlns="http://www.w3.org/2000/svg"><mask id="aia" maskUnits="userSpaceOnUse" x="0" y="0" width="666" height="284"><rect x="666" y="284" width="666" height="284" rx="30" transform="rotate(-180 666 284)"/></mask><g mask="url(#aia)" stroke-width="80"><circle cx="91.5" cy=".5" r="183.5"/><circle cx="716.5" cy="-76.5" r="183.5"/><circle cx="500.5" cy="341.5" r="117.5"/></g></svg><svg viewBox="0 0 907 284" id="bubble-2" xmlns="http://www.w3.org/2000/svg"><mask id="afa" maskUnits="userSpaceOnUse" x="0" y="0" width="907" height="284"><rect x="907" y="284" width="907" height="284" rx="30" transform="rotate(-180 907 284)"/></mask><g mask="url(#afa)" stroke-width="80"><circle cx="124.5" cy=".5" r="183.5"/><circle cx="830.5" cy="259.5" r="183.5"/><circle cx="393.5" cy="380.5" r="117.5"/></g></svg><svg viewBox="0 0 442 284" id="bubble-3" xmlns="http://www.w3.org/2000/svg"><mask id="aga" maskUnits="userSpaceOnUse" x="0" y="0" width="442" height="284"><rect x="442" y="284" width="442" height="284" rx="30" transform="rotate(-180 442 284)"/></mask><g mask="url(#aga)" stroke-width="80"><circle cx="-47.5" cy=".5" r="183.5"/><circle cx="506.5" cy="259.5" r="183.5"/></g></svg><svg viewBox="0 0 907 284" id="bubble-4" xmlns="http://www.w3.org/2000/svg"><mask id="aha" maskUnits="userSpaceOnUse" x="0" y="0" width="907" height="284"><rect x="907" y="284" width="907" height="284" rx="30" transform="rotate(-180 907 284)"/></mask><g mask="url(#aha)" stroke-width="80"><circle cx="9.5" cy=".5" r="183.5"/><circle cx="563.5" cy="259.5" r="183.5"/></g></svg><svg viewBox="0 0 7 10" id="chevron-right" xmlns="http://www.w3.org/2000/svg"><path d="M1.625 8.75 5.375 5l-3.75-3.75" stroke-width="2" stroke-linecap="round" stroke-linejoin="round"/></svg><svg viewBox="0 0 8 14" id="chevron-right-thin" xmlns="http://www.w3.org/2000/svg"><path d="m1 13 6-6-6-6" stroke-width="2" stroke-linecap="round" stroke-linejoin="round"/></svg><svg viewBox="0 0 24 24" id="envelope" xmlns="http://www.w3.org/2000/svg"><path fill-rule="evenodd" clip-rule="evenodd" d="M1.25 4.5A.75.75 0 0 1 2 3.75h20a.75.75 0 0 1 .75.75v15a.75.75 0 0 1-.75.75H2a.75.75 0 0 1-.75-.75v-15Zm1.5.75v13.5h18.5V5.25H2.75Z"/><path fill-rule="evenodd" clip-rule="evenodd" d="M1.4 4.05a.75.75 0 0 1 1.05-.15L12 11.062 21.55 3.9a.75.75 0 0 1 .9 1.2l-10 7.5a.75.75 0 0 1-.9 0l-10-7.5a.75.75 0 0 1-.15-1.05Z"/><path fill-rule="evenodd" clip-rule="evenodd" d="M1.25 4.5A.75.75 0 0 1 2 3.75h10a.75.75 0 0 1 0 1.5H2.75V12a.75.75 0 0 1-1.5 0V4.5Z"/><path fill-rule="evenodd" clip-rule="evenodd" d="M11.25 4.5a.75.75 0 0 1 .75-.75h10a.75.75 0 0 1 .75.75V12a.75.75 0 0 1-1.5 0V5.25H12a.75.75 0 0 1-.75-.75Z"/></svg><svg viewBox="0 0 16 16" id="filter" xmlns="http://www.w3.org/2000/svg"><path fill-rule="evenodd" clip-rule="evenodd" d="M13 1.333a.833.833 0 1 0-1.667 0v.834h-10a.833.833 0 1 0 0 1.666h10v.834a.833.833 0 1 0 1.667 0v-.834h1.667a.833.833 0 0 0 0-1.666H13v-.834ZM1.333 7.167a.833.833 0 1 0 0 1.666H3v.834a.833.833 0 0 0 1.667 0v-.834h10a.833.833 0 0 0 0-1.666h-10v-.834a.833.833 0 0 0-1.667 0v.834H1.333ZM.5 13a.833.833 0 0 1 .833-.833h10v-.834a.833.833 0 0 1 1.667 0v.834h1.667a.834.834 0 0 1 0 1.666H13v.834a.833.833 0 0 1-1.667 0v-.834h-10A.834.834 0 0 1 .5 13Z"/></svg><svg viewBox="0 0 16 16" id="instagram" xmlns="http://www.w3.org/2000/svg"><path fill-rule="evenodd" clip-rule="evenodd" d="M3.875.9A2.976 2.976 0 0 0 .899 3.873v7.936a2.976 2.976 0 0 0 2.976 2.976h7.936a2.976 2.976 0 0 0 2.975-2.976V3.874A2.976 2.976 0 0 0 11.81.9H3.875Zm8.792 2.979a.857.857 0 1 1-1.715 0 .857.857 0 0 1 1.715 0ZM7.844 5.465a2.377 2.377 0 1 0 0 4.754 2.377 2.377 0 0 0 0-4.754ZM4.323 7.842a3.52 3.52 0 1 1 7.04 0 3.52 3.52 0 0 1-7.04 0Z"/></svg><svg viewBox="0 0 442 283" id="line" xmlns="http://www.w3.org/2000/svg"><path d="M-197 104.644c18.574 35.959 84.555 96.413 199.888 50.549 144.168-57.33 508.185-409.546 257.049 49.02C203.814 306.692 236.91 531.759 637 463.25" stroke-width="41"/></svg><svg viewBox="0 0 24 24" id="magnifying-glass" xmlns="http://www.w3.org/2000/svg"><path d="M11 19a8 8 0 1 0 0-16 8 8 0 0 0 0 16ZM21 21l-4.35-4.35" stroke-width="1.5" stroke-linecap="round" stroke-linejoin="round"/></svg><svg viewBox="0 0 24 24" id="map-pin" xmlns="http://www.w3.org/2000/svg"><path fill-rule="evenodd" clip-rule="evenodd" d="M3.75 9.5a8.25 8.25 0 1 1 16.5 0c0 3.516-2.014 6.812-3.917 9.16a29.705 29.705 0 0 1-3.521 3.638c-.106.091-.19.162-.25.21-.028.025-.051.043-.067.056l-.019.015-.005.005h-.002v.001L12 22l-.469.585-.002-.001-.005-.005-.019-.015-.068-.055-.249-.211a29.708 29.708 0 0 1-3.52-3.638C5.762 16.312 3.75 13.016 3.75 9.5ZM12 22l-.469.586a.75.75 0 0 0 .938 0L12 22Zm0-.985a28.214 28.214 0 0 0 3.167-3.3c1.847-2.277 3.583-5.23 3.583-8.215a6.75 6.75 0 0 0-13.5 0c0 2.984 1.737 5.938 3.583 8.215a28.214 28.214 0 0 0 3.167 3.3Z"/><path fill-rule="evenodd" clip-rule="evenodd" d="M8.25 9.5a3.75 3.75 0 1 1 7.5 0 3.75 3.75 0 0 1-7.5 0ZM12 7.25a2.25 2.25 0 1 0 0 4.5 2.25 2.25 0 0 0 0-4.5Z"/></svg><svg viewBox="0 0 18 20" id="play" xmlns="http://www.w3.org/2000/svg"><path d="M16.5 7.402c2 1.155 2 4.041 0 5.196l-12 6.928c-2 1.155-4.5-.288-4.5-2.598V3.072C0 .762 2.5-.681 4.5.474l12 6.928Z"/></svg><svg viewBox="0 0 871 284" id="radio-wave" xmlns="http://www.w3.org/2000/svg"><g opacity=".7"><mask id="asa" maskUnits="userSpaceOnUse" x="0" y="0" width="871" height="284"><rect x="871" y="284" width="871" height="284" rx="30" transform="rotate(-180 871 284)"/></mask><g mask="url(#asa)" stroke-width="40"><circle cx="523.5" cy="90.5" r="90.5"/><circle opacity=".6" cx="523.5" cy="90.5" r="151.5"/><circle opacity=".4" cx="523.5" cy="90.5" r="222.5"/><circle opacity=".3" cx="523.5" cy="90.5" r="297.5"/></g></g></svg><svg viewBox="0 0 906 284" id="spiral" xmlns="http://www.w3.org/2000/svg"><g opacity=".7"><mask id="ata" maskUnits="userSpaceOnUse" x="0" y="0" width="906" height="285"><rect x="906" y="284" width="906" height="284" rx="30" transform="rotate(-180 906 284)"/></mask><g mask="url(#ata)" stroke-width="40"><path opacity=".5" d="M-613.287 375.296c-.229-.855-.629-3.61 2.561-9.473 3.25-5.97 9.406-13.536 19.34-22.469 19.819-17.823 51.316-38.133 92.958-59.483 82.988-42.548 202.379-87.271 338.402-123.718 136.024-36.447 261.781-57.412 354.924-62.059 46.739-2.331 84.171-.49 110.245 5.035 13.071 2.77 22.185 6.244 27.984 9.79 5.695 3.481 6.726 6.068 6.955 6.923.229.855.63 3.611-2.561 9.473-3.25 5.97-9.406 13.536-19.34 22.47-19.819 17.823-51.315 38.133-92.958 59.483-82.988 42.548-202.379 87.27-338.402 123.717-136.024 36.448-261.78 57.413-354.924 62.059-46.739 2.331-84.171.491-110.245-5.035-13.07-2.77-22.185-6.244-27.984-9.789-5.695-3.482-6.726-6.068-6.955-6.924Z"/><path opacity=".5" d="M-887.609 448.801c-1.318-4.919-.868-12.157 4.949-22.835 5.875-10.786 16.43-23.497 32.36-37.816 31.812-28.593 81.695-60.634 146.731-93.966 129.774-66.513 315.98-136.207 527.756-192.953C35.963 44.486 232.069 11.74 377.713 4.455c72.989-3.651 132.21-.844 174.056 8.012 20.956 4.435 36.451 10.166 46.932 16.569 10.377 6.34 14.386 12.383 15.704 17.301 1.318 4.919.868 12.157-4.949 22.836-5.875 10.785-16.429 23.496-32.36 37.815-31.812 28.593-81.695 60.634-146.731 93.967-129.774 66.513-315.98 136.207-527.756 192.952-211.776 56.745-407.882 89.491-553.526 96.776-72.989 3.651-132.21.845-174.056-8.012-20.956-4.435-36.451-10.166-46.932-16.569-10.377-6.339-14.386-12.382-15.704-17.301Z"/><path opacity=".5" d="M-1205.4 533.952c-2.59-9.66-1.15-22.12 7.71-38.395 8.91-16.384 24.56-35.072 47.43-55.647 45.69-41.105 116.86-86.769 208.99-134.011 183.956-94.332 447.551-192.989 747.081-273.248C105.341-47.61 382.95-93.966 589.426-104.25c103.406-5.151 187.874-1.19 247.998 11.56 30.095 6.383 52.988 14.746 68.899 24.477 15.805 9.668 23.284 19.739 25.872 29.399 2.589 9.66 1.147 22.12-7.707 38.396-8.913 16.383-24.558 35.072-47.429 55.646-45.694 41.105-116.865 86.769-208.992 134.011-183.956 94.332-447.551 192.99-747.082 273.249-299.53 80.259-577.138 126.616-783.615 136.9-103.405 5.151-187.87 1.191-248-11.561-30.09-6.382-52.99-14.745-68.9-24.476-15.8-9.668-23.28-19.738-25.87-29.399Z"/><path opacity=".5" d="M-1542.51 624.28c-3.92-14.658-1.44-32.632 10.65-54.827 12.14-22.303 33.18-47.316 63.42-74.51 60.43-54.344 154.2-114.427 275.07-176.398C-951.92 194.757-606.221 65.408-213.6-39.794S543.079-205.827 814.074-219.348c135.664-6.768 246.906-1.617 326.416 15.231 39.78 8.431 70.52 19.569 92.18 32.814 21.56 13.181 32.71 27.502 36.63 42.161 3.93 14.658 1.44 32.632-10.64 54.827-12.14 22.303-33.19 47.316-63.43 74.51-60.43 54.344-154.19 114.427-275.064 176.398C678.718 300.381 333.018 429.729-59.603 534.932c-392.62 105.202-756.679 166.033-1027.677 179.554-135.66 6.768-246.91 1.617-326.41-15.231-39.79-8.431-70.52-19.569-92.19-32.814-21.56-13.181-32.7-27.502-36.63-42.161Z"/></g></g></svg><svg viewBox="0 0 16 16" id="telegram" xmlns="http://www.w3.org/2000/svg"><g clip-path="url(#aua)"><path fill-rule="evenodd" clip-rule="evenodd" d="M13.185 2.953a1 1 0 0 1 1.375 1.084l-1.512 9.172c-.147.884-1.118 1.392-1.929.951a38.95 38.95 0 0 1-2.593-1.53c-.454-.296-1.842-1.246-1.672-1.922.147-.578 2.48-2.75 3.814-4.041.523-.508.284-.8-.334-.334C8.8 7.492 6.336 9.254 5.521 9.75c-.719.437-1.093.512-1.541.437a10.215 10.215 0 0 1-2.194-.603c-.836-.347-.796-1.496 0-1.83l11.4-4.8Z"/></g><defs><clipPath id="aua"><path d="M0 0h16v16H0z"/></clipPath></defs></svg><svg viewBox="0 0 16 16" id="tiktok" xmlns="http://www.w3.org/2000/svg"><path d="M11.067 3.88A2.852 2.852 0 0 1 10.361 2H8.3v8.267a1.728 1.728 0 0 1-1.727 1.666A1.738 1.738 0 0 1 4.84 10.2a1.73 1.73 0 0 1 2.246-1.653V6.44a3.802 3.802 0 0 0-4.313 3.76c0 2.22 1.84 3.8 3.793 3.8 2.094 0 3.794-1.7 3.794-3.8V6.007a4.9 4.9 0 0 0 2.866.92v-2.06s-1.253.06-2.16-.987Z"/></svg><svg viewBox="0 0 10 11" id="times" xmlns="http://www.w3.org/2000/svg"><path d="M9.243 1.258.758 9.743m8.485 0L.758 1.258" stroke-width="1.5" stroke-linecap="round" stroke-linejoin="round"/></svg><svg viewBox="0 0 12 10" id="view-line" xmlns="http://www.w3.org/2000/svg"><path fill-rule="evenodd" clip-rule="evenodd" d="M.25 1A.75.75 0 0 1 1 .25h10a.75.75 0 0 1 0 1.5H1A.75.75 0 0 1 .25 1Zm0 4A.75.75 0 0 1 1 4.25h10a.75.75 0 0 1 0 1.5H1A.75.75 0 0 1 .25 5ZM1 8.25a.75.75 0 0 0 0 1.5h10a.75.75 0 0 0 0-1.5H1Z"/></svg><svg viewBox="0 0 16 16" id="view-rect" xmlns="http://www.w3.org/2000/svg"><path fill-rule="evenodd" clip-rule="evenodd" d="M12 0a2 2 0 0 0-2 2v2a2 2 0 0 0 2 2h2a2 2 0 0 0 2-2V2a2 2 0 0 0-2-2h-2ZM2 10a2 2 0 0 0-2 2v2a2 2 0 0 0 2 2h2a2 2 0 0 0 2-2v-2a2 2 0 0 0-2-2H2ZM0 2a2 2 0 0 1 2-2h2a2 2 0 0 1 2 2v2a2 2 0 0 1-2 2H2a2 2 0 0 1-2-2V2Zm12 8a2 2 0 0 0-2 2v2a2 2 0 0 0 2 2h2a2 2 0 0 0 2-2v-2a2 2 0 0 0-2-2h-2Z"/></svg><svg viewBox="0 0 16 16" id="vk" xmlns="http://www.w3.org/2000/svg"><g clip-path="url(#aza)"><path fill-rule="evenodd" clip-rule="evenodd" d="M14.242 9.839s1.293 1.277 1.613 1.869a.1.1 0 0 1 .015.028c.13.218.162.39.098.516-.108.208-.473.313-.598.322h-2.286c-.16 0-.49-.042-.893-.32-.309-.215-.615-.57-.912-.916-.443-.514-.826-.96-1.214-.96a.438.438 0 0 0-.144.023c-.294.093-.667.511-.667 1.626 0 .349-.275.547-.468.547H7.74c-.357 0-2.214-.125-3.861-1.862C1.859 8.586.046 4.32.028 4.282c-.112-.275.125-.426.38-.426h2.31c.31 0 .41.188.48.356.082.192.384.964.88 1.83.804 1.41 1.297 1.983 1.692 1.983.074 0 .147-.019.21-.056.516-.283.42-2.123.396-2.502 0-.074 0-.822-.265-1.183-.189-.26-.51-.36-.705-.397a.836.836 0 0 1 .304-.259c.353-.176.99-.201 1.624-.201h.35c.687.01.865.053 1.114.117.503.12.512.445.468 1.554-.012.317-.026.674-.026 1.094 0 .09-.004.19-.004.29-.015.57-.035 1.21.366 1.474.053.032.113.05.174.05.14 0 .556 0 1.687-1.94.496-.858.88-1.868.906-1.944a.577.577 0 0 1 .171-.21.383.383 0 0 1 .189-.044h2.716c.296 0 .497.044.536.156.066.182-.013.736-1.253 2.413-.209.28-.392.521-.553.732-1.124 1.475-1.124 1.55.067 2.67Z"/></g><defs><clipPath id="aza"><path d="M0 0h16v16H0z"/></clipPath></defs></svg><svg viewBox="0 0 16 16" id="youtube" xmlns="http://www.w3.org/2000/svg"><path d="m6.667 10 3.46-2-3.46-2v4Zm7.707-5.22c.087.313.147.733.187 1.266.046.534.066.994.066 1.394l.04.56c0 1.46-.106 2.533-.293 3.22-.167.6-.553.986-1.153 1.153-.314.087-.887.147-1.767.187a44.5 44.5 0 0 1-2.393.066l-1.06.04c-2.794 0-4.534-.106-5.22-.293-.6-.167-.987-.553-1.154-1.153-.086-.314-.146-.734-.186-1.267a16.04 16.04 0 0 1-.067-1.393L1.334 8c0-1.46.107-2.534.293-3.22.167-.6.554-.987 1.154-1.154.313-.086.886-.146 1.766-.186a44.44 44.44 0 0 1 2.394-.067L8 3.333c2.793 0 4.533.107 5.22.293.6.167.986.554 1.153 1.154Z"/></svg></svg>