<svg width="24" height="25" fill="none" xmlns="http://www.w3.org/2000/svg"><g clip-path="url(#clip0_4276_26578)"><path fill-rule="evenodd" clip-rule="evenodd" d="M21.263 15.887h-8.816a3.905 3.905 0 00-.331-7.794h-2.88A5.305 5.305 0 007.904.5h13.36a2.314 2.314 0 012.31 2.314v10.764a2.312 2.312 0 01-2.31 2.311v-.002zM4.971 8.096a3.168 3.168 0 10.147-6.334 3.168 3.168 0 00-.147 6.334zm8.905 3.902c0-.974-.788-1.763-1.76-1.763H4.973A4.542 4.542 0 00.43 14.778v2.066c0 .912.74 1.65 1.652 1.65h.295l.484 4.475A1.715 1.715 0 004.563 24.5h.86a1.714 1.714 0 001.698-1.478l1.29-9.264h3.703a1.76 1.76 0 001.76-1.76h.002z" fill="#0075FF"/></g><defs><clipPath id="clip0_4276_26578"><path fill="#fff" transform="translate(0 .5)" d="M0 0h24v24H0z"/></clipPath></defs></svg>