<svg width="24" height="24" fill="none" xmlns="http://www.w3.org/2000/svg"><mask id="a" style="mask-type:luminance" maskUnits="userSpaceOnUse" x="1" y="2" width="22" height="20"><path d="M7.5 6L9 3h6l1.5 3h-9z" stroke="#fff" stroke-width="2" stroke-linejoin="round"/><path d="M20.5 6h-17C2.671 6 2 6.627 2 7.4v12.2c0 .773.671 1.4 1.5 1.4h17c.828 0 1.5-.627 1.5-1.4V7.4c0-.773-.672-1.4-1.5-1.4z" fill="#fff" stroke="#fff" stroke-width="2" stroke-linejoin="round"/><path d="M16 9.5v4m-8 0v4" stroke="#000" stroke-width="2" stroke-linecap="round" stroke-linejoin="round"/><path d="M8 13.5a4 4 0 005.5 3.71M16 13.5a4 4 0 00-5.5-3.71" stroke="#000" stroke-width="2" stroke-linecap="round"/></mask><g mask="url(#a)"><path d="M0 0h24v24H0V0z" fill="#0075FF"/></g></svg>