<svg width="24" height="24" fill="none" xmlns="http://www.w3.org/2000/svg"><path d="M17.25 8.397v-.522c0-2.351-3.547-4.125-8.25-4.125C4.297 3.75.75 5.524.75 7.875v3.75c0 1.958 2.46 3.515 6 3.98v.52c0 2.351 3.547 4.125 8.25 4.125 4.703 0 8.25-1.774 8.25-4.125v-3.75c0-1.94-2.383-3.499-6-3.978zm-12 5.372c-1.837-.513-3-1.357-3-2.144v-1.32c.765.543 1.79.98 3 1.273v2.191zm7.5-2.19c1.21-.294 2.235-.731 3-1.273v1.319c0 .787-1.163 1.631-3 2.144v-2.19zm-1.5 6.69c-1.837-.513-3-1.357-3-2.144v-.39a18.074 18.074 0 001.818-.017c.387.138.782.256 1.182.352v2.2zm0-4.183a15.402 15.402 0 01-4.5 0v-2.23A17.22 17.22 0 009 12a17.22 17.22 0 002.25-.144v2.23zm6 4.5a15.507 15.507 0 01-4.5 0V16.35a17.22 17.22 0 004.5.006v2.23zm4.5-2.461c0 .787-1.163 1.631-3 2.144v-2.19c1.21-.294 2.235-.731 3-1.273v1.319z" fill="#0075FF"/></svg>