<svg width="24" height="24" fill="none" xmlns="http://www.w3.org/2000/svg"><path d="M6.729 1.705c-.102 0-.773 1.795-.856 1.855-.083.06-1.998.144-2.03.24-.03.098 1.47 1.29 1.5 1.388.032.097-.48 1.944-.397 2.004.082.06 1.68-.998 1.783-.998.102 0 1.7 1.058 1.783.998.082-.06-.43-1.907-.398-2.004.031-.097 1.531-1.29 1.5-1.387-.032-.097-1.947-.18-2.03-.24-.082-.06-.753-1.856-.855-1.856zm10.535 0c-.102 0-.773 1.795-.856 1.855-.083.06-1.998.144-2.03.24-.03.098 1.47 1.29 1.5 1.388.032.097-.48 1.944-.397 2.004.082.06 1.68-.998 1.783-.998.102 0 1.7 1.058 1.783.998.082-.06-.43-1.907-.399-2.004.032-.097 1.532-1.29 1.5-1.387-.03-.097-1.946-.18-2.029-.24-.082-.06-.753-1.856-.855-1.856zm-5.268.165c-.334 0-2.526 5.865-2.796 6.061-.27.196-6.525.469-6.628.786-.104.317 4.797 4.215 4.9 4.532.104.317-1.57 6.351-1.3 6.547.27.196 5.49-3.26 5.824-3.26.334 0 5.555 3.456 5.825 3.26.27-.196-1.404-6.23-1.301-6.547.103-.317 5.004-4.215 4.9-4.532-.102-.317-6.358-.59-6.628-.786-.27-.196-2.462-6.061-2.796-6.061zm-8.345 9.526c-.102 0-.773 1.795-.856 1.855-.082.06-1.997.144-2.029.24-.031.098 1.469 1.29 1.5 1.388.032.097-.48 1.944-.398 2.004.083.06 1.681-.998 1.783-.998.102 0 1.7 1.058 1.783.998.083-.06-.43-1.907-.398-2.004.032-.097 1.532-1.29 1.5-1.387-.031-.098-1.946-.18-2.029-.24-.083-.061-.754-1.856-.856-1.856zm16.69 0c-.102 0-.773 1.795-.856 1.855-.082.06-1.997.144-2.029.24-.031.098 1.469 1.29 1.5 1.388.032.097-.48 1.944-.398 2.004.083.06 1.681-.998 1.783-.998.102 0 1.7 1.058 1.783.998.083-.06-.43-1.907-.398-2.004.032-.097 1.532-1.29 1.5-1.387-.031-.098-1.946-.18-2.029-.24-.083-.061-.754-1.856-.856-1.856zm-8.345 5.945c-.102 0-.773 1.795-.856 1.855-.082.06-1.997.144-2.029.24-.031.098 1.469 1.291 1.5 1.388.032.097-.48 1.944-.398 2.004.083.06 1.681-.998 1.783-.998.102 0 1.7 1.058 1.783.998.083-.06-.43-1.907-.398-2.004.032-.097 1.532-1.29 1.5-1.387-.031-.097-1.946-.18-2.029-.24-.083-.06-.754-1.856-.856-1.856z" fill="#0075FF"/></svg>