<svg width="26" height="24" fill="none" xmlns="http://www.w3.org/2000/svg"><g clip-path="url(#clip0_4246_6742)"><path d="M7.942 12c-1.446.045-2.63.616-3.55 1.714H2.599c-.732 0-1.348-.18-1.848-.542-.5-.362-.75-.89-.75-1.587 0-3.152.554-4.728 1.66-4.728.054 0 .248.094.583.281.335.188.77.378 1.306.57a4.7 4.7 0 001.594.288 5.38 5.38 0 001.781-.309c-.045.33-.067.625-.067.884 0 1.242.362 2.384 1.085 3.429zm14.344 8.531c0 1.072-.326 1.918-.978 2.538-.652.62-1.518.931-2.598.931H7.004c-1.08 0-1.946-.31-2.598-.93-.652-.621-.977-1.467-.977-2.539 0-.473.015-.935.046-1.386.032-.45.094-.937.188-1.46.094-.522.212-1.006.355-1.453a6.91 6.91 0 01.576-1.306c.24-.424.518-.785.83-1.085a3.505 3.505 0 011.145-.716 4.016 4.016 0 011.494-.268c.089 0 .28.096.575.288.295.192.62.406.978.643.357.237.835.45 1.433.643.598.192 1.201.288 1.808.288s1.21-.096 1.808-.288c.598-.192 1.076-.406 1.433-.643s.683-.45.978-.643c.294-.192.486-.288.576-.288.544 0 1.042.09 1.493.268.451.179.833.417 1.145.716.313.3.59.661.83 1.085.242.424.434.86.576 1.306.143.447.262.93.355 1.453.094.523.157 1.01.188 1.46.031.451.047.913.047 1.386zM8.57 3.43c0 .946-.334 1.754-1.004 2.424a3.303 3.303 0 01-2.424 1.004 3.303 3.303 0 01-2.424-1.004A3.303 3.303 0 011.713 3.43c0-.947.335-1.755 1.005-2.425A3.303 3.303 0 015.143 0c.946 0 1.754.335 2.424 1.004A3.303 3.303 0 018.571 3.43zM18 8.57c0 1.42-.502 2.632-1.507 3.637-1.004 1.004-2.216 1.506-3.636 1.506s-2.632-.502-3.636-1.506S7.714 9.99 7.714 8.57s.503-2.631 1.507-3.636c1.004-1.004 2.216-1.506 3.636-1.506s2.632.502 3.636 1.506C17.498 5.94 18 7.152 18 8.571zm7.714 3.014c0 .696-.25 1.225-.75 1.587-.5.361-1.116.542-1.848.542h-1.795c-.92-1.098-2.102-1.67-3.549-1.714.724-1.045 1.085-2.188 1.085-3.429a6.61 6.61 0 00-.067-.883 5.38 5.38 0 001.781.308c.527 0 1.058-.096 1.594-.288a8.808 8.808 0 001.306-.57c.335-.187.529-.28.583-.28 1.107 0 1.66 1.575 1.66 4.727zM24 3.429c0 .946-.335 1.754-1.005 2.424a3.303 3.303 0 01-2.424 1.004 3.303 3.303 0 01-2.424-1.004 3.303 3.303 0 01-1.004-2.424c0-.947.335-1.755 1.004-2.425A3.303 3.303 0 0120.571 0c.947 0 1.755.335 2.424 1.004A3.303 3.303 0 0124 3.43z" fill="#0075FF"/></g><defs><clipPath id="clip0_4246_6742"><path fill="#fff" d="M0 0h25.72v24H0z"/></clipPath></defs></svg>