<svg width="24" height="24" fill="none" xmlns="http://www.w3.org/2000/svg"><path d="M14.004 7.07A8 8 0 002.839 17.562c.142.285.189.61.107.918l-.477 1.781a1.04 1.04 0 001.274 1.274l1.78-.477c.309-.077.636-.04.919.107A8 8 0 0016.934 10" stroke="#0075FF" stroke-width="1.5" stroke-linecap="round"/><path d="M18 14.502c.067-.028.133-.057.198-.087.362-.165.768-.227 1.153-.124l.476.127a1.3 1.3 0 001.592-1.591l-.128-.476c-.103-.385-.04-.791.125-1.153A6.476 6.476 0 0022 8.5a6.47 6.47 0 00-1-3.466m-11.5.962A6.502 6.502 0 0119 3.022" stroke="#0075FF" stroke-width="1.5" stroke-linecap="round"/><path d="M6.523 14h.01m3.481 0h.01m3.481 0h.01" stroke="#0075FF" stroke-width="2" stroke-linecap="round" stroke-linejoin="round"/></svg>