<svg width="30" height="30" fill="none" xmlns="http://www.w3.org/2000/svg"><path d="M3.667 13.584h22.667m-22.667 0A2.833 2.833 0 01.834 10.75V9.334A2.833 2.833 0 013.667 6.5h22.667a2.833 2.833 0 012.833 2.834v1.416a2.833 2.833 0 01-2.833 2.834m-22.667 0v12.75a2.833 2.833 0 002.834 2.833h17a2.833 2.833 0 002.833-2.834v-12.75M15.001 6.5h5.666a2.833 2.833 0 100-5.667A5.667 5.667 0 0015.001 6.5zm0 0H9.334a2.833 2.833 0 110-5.667A5.667 5.667 0 0115.001 6.5zm0 0v22.667" stroke="#0075FF" stroke-width="1.5" stroke-linecap="round"/></svg>