<svg width="34" height="34" fill="none" xmlns="http://www.w3.org/2000/svg"><path d="M31.17 19.833c0-5.342 0-8.014-1.661-9.673-1.063-1.062-2.54-1.445-4.87-1.584-1.307-.076-2.882-.076-4.803-.076h-5.667c-1.92 0-3.496 0-4.802.076-2.33.138-3.808.52-4.87 1.584-1.661 1.66-1.661 4.331-1.661 9.673 0 5.343 0 8.014 1.66 9.673 1.66 1.66 4.331 1.66 9.673 1.66h5.667c5.342 0 8.014 0 9.673-1.66.926-.925 1.336-2.164 1.516-4.006" stroke="#0075FF" stroke-width="1.5" stroke-linecap="round"/><path d="M9.367 8.576c1.166-.028 2.196-.85 2.593-1.946l.05-.146.035-.109c.06-.18.09-.27.121-.348a2.833 2.833 0 012.458-1.771c.084-.006.18-.006.367-.006h4.02c.19 0 .284 0 .37.006a2.833 2.833 0 012.457 1.77c.033.08.062.17.122.349l.037.11c.025.074.037.112.05.145.396 1.098 1.426 1.918 2.592 1.946" stroke="#0075FF" stroke-width="1.5"/><path d="M30.688 12.353c-4.264 2.771-6.396 4.157-8.643 4.855a17 17 0 01-10.088 0c-2.248-.698-4.38-2.082-8.645-4.855m8.022 3.23v2.834m11.333-2.834v2.834" stroke="#0075FF" stroke-width="1.5" stroke-linecap="round"/></svg>