<svg width="35" height="34" fill="none" xmlns="http://www.w3.org/2000/svg"><path d="M3.033 17c0-5.342 0-8.014 1.66-9.673 1.66-1.66 4.331-1.66 9.674-1.66h5.666c5.342 0 8.014 0 9.673 1.66 1.66 1.659 1.66 4.33 1.66 9.673v2.833c0 5.343 0 8.015-1.66 9.673-1.659 1.66-4.33 1.66-9.673 1.66h-5.667c-5.342 0-8.014 0-9.672-1.66-1.66-1.659-1.66-4.33-1.66-9.673V17z" stroke="#0075FF" stroke-width="2.125"/><path d="M10.117 5.667V3.542m14.167 2.125V3.542M3.742 12.75H30.66" stroke="#0075FF" stroke-width="2.125" stroke-linecap="round"/><path d="M25.7 24.083a1.417 1.417 0 11-2.834 0 1.417 1.417 0 012.833 0zm0-5.666a1.417 1.417 0 11-2.834 0 1.417 1.417 0 012.833 0zm-7.084 5.666a1.417 1.417 0 11-2.834 0 1.417 1.417 0 012.834 0zm0-5.666a1.417 1.417 0 11-2.834 0 1.417 1.417 0 012.834 0zm-7.083 5.666a1.417 1.417 0 11-2.834 0 1.417 1.417 0 012.834 0zm0-5.666a1.417 1.417 0 11-2.834 0 1.417 1.417 0 012.834 0z" fill="#0075FF"/></svg>