<svg width="906" height="284" fill="none" xmlns="http://www.w3.org/2000/svg"><g opacity=".7"><mask id="a" style="mask-type:alpha" maskUnits="userSpaceOnUse" x="0" y="0" width="906" height="285"><rect x="906" y="284" width="906" height="284" rx="30" transform="rotate(-180 906 284)" fill="#BFB6FF"/></mask><g mask="url(#a)" stroke="#fff" stroke-width="40"><path opacity=".5" d="M-613.287 375.296c-.229-.855-.629-3.61 2.561-9.473 3.25-5.97 9.406-13.536 19.34-22.469 19.819-17.823 51.316-38.133 92.958-59.483 82.988-42.548 202.379-87.271 338.402-123.718 136.024-36.447 261.781-57.412 354.924-62.059 46.739-2.331 84.171-.49 110.245 5.035 13.071 2.77 22.185 6.244 27.984 9.79 5.695 3.481 6.726 6.068 6.955 6.923.229.855.63 3.611-2.561 9.473-3.25 5.97-9.406 13.536-19.34 22.47-19.819 17.823-51.315 38.133-92.958 59.483-82.988 42.548-202.379 87.27-338.402 123.717-136.024 36.448-261.78 57.413-354.924 62.059-46.739 2.331-84.171.491-110.245-5.035-13.07-2.77-22.185-6.244-27.984-9.789-5.695-3.482-6.726-6.068-6.955-6.924z"/><path opacity=".5" d="M-887.609 448.801c-1.318-4.919-.868-12.157 4.949-22.835 5.875-10.786 16.43-23.497 32.36-37.816 31.812-28.593 81.695-60.634 146.731-93.966 129.774-66.513 315.98-136.207 527.756-192.953C35.963 44.486 232.069 11.74 377.713 4.455c72.989-3.651 132.21-.844 174.056 8.012 20.956 4.435 36.451 10.166 46.932 16.569 10.377 6.34 14.386 12.383 15.704 17.301 1.318 4.919.868 12.157-4.949 22.836-5.875 10.785-16.429 23.496-32.36 37.815-31.812 28.593-81.695 60.634-146.731 93.967-129.774 66.513-315.98 136.207-527.756 192.952-211.776 56.745-407.882 89.491-553.526 96.776-72.989 3.651-132.21.845-174.056-8.012-20.956-4.435-36.451-10.166-46.932-16.569-10.377-6.339-14.386-12.382-15.704-17.301z"/><path opacity=".5" d="M-1205.4 533.952c-2.59-9.66-1.15-22.12 7.71-38.395 8.91-16.384 24.56-35.072 47.43-55.647 45.69-41.105 116.86-86.769 208.99-134.011 183.956-94.332 447.551-192.989 747.081-273.248C105.341-47.61 382.95-93.966 589.426-104.25c103.406-5.151 187.874-1.19 247.998 11.56 30.095 6.383 52.988 14.746 68.899 24.477 15.805 9.668 23.284 19.739 25.872 29.399 2.589 9.66 1.147 22.12-7.707 38.396-8.913 16.383-24.558 35.072-47.429 55.646-45.694 41.105-116.865 86.769-208.992 134.011-183.956 94.332-447.551 192.99-747.082 273.249-299.53 80.259-577.138 126.616-783.615 136.9-103.405 5.151-187.87 1.191-248-11.561-30.09-6.382-52.99-14.745-68.9-24.476-15.8-9.668-23.28-19.738-25.87-29.399z"/><path opacity=".5" d="M-1542.51 624.28c-3.92-14.658-1.44-32.632 10.65-54.827 12.14-22.303 33.18-47.316 63.42-74.51 60.43-54.344 154.2-114.427 275.07-176.398C-951.92 194.757-606.221 65.408-213.6-39.794S543.079-205.827 814.074-219.348c135.664-6.768 246.906-1.617 326.416 15.231 39.78 8.431 70.52 19.569 92.18 32.814 21.56 13.181 32.71 27.502 36.63 42.161 3.93 14.658 1.44 32.632-10.64 54.827-12.14 22.303-33.19 47.316-63.43 74.51-60.43 54.344-154.19 114.427-275.064 176.398C678.718 300.381 333.018 429.729-59.603 534.932c-392.62 105.202-756.679 166.033-1027.677 179.554-135.66 6.768-246.91 1.617-326.41-15.231-39.79-8.431-70.52-19.569-92.19-32.814-21.56-13.181-32.7-27.502-36.63-42.161z"/></g></g></svg>