<svg width="28" height="22" fill="none" xmlns="http://www.w3.org/2000/svg"><path d="M7.205 12.36a5.865 5.865 0 005.86-5.87A5.865 5.865 0 007.206.62a5.865 5.865 0 00-5.861 5.87 5.865 5.865 0 005.86 5.87zm-.679.029c-1.34 1.842-3.142 2.586-5.69 2.586 1.22-.813 2.441-2.407 2.915-3.66l2.775 1.074zm14.273 6.443a5.861 5.861 0 100-11.722 5.861 5.861 0 000 11.722z" fill="#121212" fill-opacity=".2"/><path d="M21.477 18.878c1.34 1.843 3.142 2.587 5.69 2.587-1.22-.814-2.441-2.407-2.915-3.66l-2.775 1.073zM3.751 11.316c-.474 1.252-1.694 2.845-2.915 3.66 2.548 0 4.35-.745 5.69-2.587m1.644-.04A5.947 5.947 0 007.204.535a5.946 5.946 0 00-4.625 9.684" fill="#121212" fill-opacity=".2"/><path d="M24.252 17.805c.474 1.253 1.694 2.846 2.915 3.66-2.548 0-4.35-.744-5.69-2.587m-1.646-.04a5.947 5.947 0 01.966-11.813 5.946 5.946 0 014.626 9.683" fill="#121212" fill-opacity=".2"/></svg>